<svg data-v-86583afd="" xmlns="http://www.w3.org/2000/svg" width="83.24417963027953" height="24.5" viewBox="0 0 118.92025661468506 35" class="badge-svg"><defs data-v-86583afd=""><!----><!----><!----></defs><path data-v-86583afd="" d="M 5 0 L 34.01116466522217 0 L 34.01116466522217 35 L 5 35 Q 0 35 0 30 L 0 5 Q 0 0 5 0 Z" fill="#000000"/><path data-v-86583afd="" d="M 34.01116466522217 0 L 113.92025661468506 0 Q 118.92025661468506 0 118.92025661468506 5 L 118.92025661468506 30 Q 118.92025661468506 35 113.92025661468506 35 L 34.01116466522217 35 Z" fill="#eb4d33"/><!----><text data-v-86583afd="" x="17.005582332611084" y="17.5" dy="0.35em" font-size="18" font-family="Arial, sans-serif" fill="#FFFFFF" text-anchor="middle" letter-spacing="2" font-weight="500" font-style="normal" text-decoration="none" fill-opacity="1" font-variant="normal" style="text-transform: uppercase;"> ./</text><g data-v-86583afd="" transform="translate(88.92025661468506, 7.5) scale(0.8333333333333334)"><path data-v-86583afd="" d="M11.976.0003a1.541 1.541 0 0 0-1.0928.4526L8.707 2.6287l2.7604 2.7604c.6417-.2166 1.377-.0715 1.8882.4399.514.5145.6583 1.2563.4362 1.9l.9101.9102 3.2768-3.2764L13.0684.4529A1.5394 1.5394 0 0 0 11.976.0003ZM7.638 3.698 5.926 5.4101l4.9095 4.9095c.1535.1536.332.267.5217.3423V8.831a1.8198 1.8198 0 0 1-.6024-.4011c-.5441-.5437-.6749-1.3422-.3958-2.0104Zm10.916 2.24-3.2765 3.2764 1.1743 1.1747c.6436-.2217 1.3862-.0782 1.9001.4366.7185.7183.7185 1.8823 0 2.6008-.7186.7187-1.8823.7187-2.6012 0-.5402-.5407-.674-1.3344-.4003-2l-1.1427-1.1423-.588.588c-.6036.604-.6036 1.5829 0 2.1865l4.9935 4.993 4.9342-4.9342c.6035-.6038.6035-1.5829 0-2.1865zM5.34 5.9956.4528 10.8825c-.6037.604-.6037 1.5828 0 2.1864l4.8395 4.8396 4.8873-4.8873c.6035-.6038.6035-1.5828 0-2.1865zm7.5293 2.9497v1.4986c.0516-.04.1048-.077.1522-.1243l.611-.611zm-1.5121 4.2224c-.2317.072-.4514.1927-.6349.376-1.6323 1.6325-3.2647 3.2649-4.8971 4.8972l5.1065 5.1062c.6033.6035 1.582.6035 2.1861 0l4.8967-4.8968-5.1065-5.1065c-.012-.012-.0264-.0202-.0387-.0317v1.9618a1.854 1.854 0 0 1 .4863.3477c.7183.7182.7183 1.8819 0 2.6012-.7185.7182-1.883.7182-2.6008 0-.7184-.7193-.7184-1.883 0-2.6012a1.8406 1.8406 0 0 1 .6024-.4012z" fill="#ffffff"/></g><text data-v-86583afd="" x="64.46571063995361" y="17.5" dy="0.35em" font-size="18" font-family="'Courier New', sans-serif" fill="#ffffff" text-anchor="middle" font-weight="500" letter-spacing="1.5" font-style="normal" text-decoration="none" fill-opacity="1" font-variant="normal" style="text-transform: capitalize;">Git</text><!----></svg>