<svg data-v-86583afd="" xmlns="http://www.w3.org/2000/svg" width="91.85630197525023" height="24.5" viewBox="0 0 131.22328853607178 35" class="badge-svg"><defs data-v-86583afd=""><!----><!----><!----></defs><path data-v-86583afd="" d="M 5 0 L 34.01116466522217 0 L 34.01116466522217 35 L 5 35 Q 0 35 0 30 L 0 5 Q 0 0 5 0 Z" fill="#000000"/><path data-v-86583afd="" d="M 34.01116466522217 0 L 126.22328853607178 0 Q 131.22328853607178 0 131.22328853607178 5 L 131.22328853607178 30 Q 131.22328853607178 35 126.22328853607178 35 L 34.01116466522217 35 Z" fill="#e04f00"/><!----><text data-v-86583afd="" x="17.005582332611084" y="17.5" dy="0.35em" font-size="18" font-family="Arial, sans-serif" fill="#FFFFFF" text-anchor="middle" letter-spacing="2" font-weight="500" font-style="normal" text-decoration="none" fill-opacity="1" font-variant="normal" style="text-transform: uppercase;"> ./</text><g data-v-86583afd="" transform="translate(101.22328853607178, 7.5) scale(0.8333333333333334)"><path data-v-86583afd="" d="M12.445.002a45.529 45.529 0 0 0-5.252 8.146 8.595 8.595 0 0 1-.555-.53 27.796 27.796 0 0 0-1.205-1.542 8.762 8.762 0 0 0-1.251 2.12 20.743 20.743 0 0 0-1.448 5.88 8.867 8.867 0 0 0 .338 3.468c1.312 3.48 3.794 5.593 7.445 6.337 3.055.438 5.755-.333 8.097-2.312 2.677-2.59 3.359-5.634 2.047-9.132a33.287 33.287 0 0 0-2.988-5.59A91.34 91.34 0 0 0 12.615.053a.216.216 0 0 0-.17-.051Zm-.336 3.906a50.93 50.93 0 0 1 4.794 6.552c.448.767.817 1.57 1.108 2.41.606 2.386-.044 4.354-1.951 5.904-1.845 1.298-3.87 1.683-6.072 1.156-2.376-.737-3.75-2.335-4.121-4.794a5.107 5.107 0 0 1 .242-2.266c.358-.908.79-1.774 1.3-2.601l1.446-2.121a397.33 397.33 0 0 0 3.254-4.24Z" fill="#ffffff"/></g><text data-v-86583afd="" x="70.61722660064697" y="17.5" dy="0.35em" font-size="18" font-family="'Courier New', sans-serif" fill="#ffffff" text-anchor="middle" font-weight="500" letter-spacing="1.5" font-style="normal" text-decoration="none" fill-opacity="1" font-variant="normal" style="text-transform: capitalize;">Hono</text><!----></svg>