<svg data-v-86583afd="" xmlns="http://www.w3.org/2000/svg" width="91.85630197525023" height="24.5" viewBox="0 0 131.22328853607178 35" class="badge-svg"><defs data-v-86583afd=""><!----><!----><!----></defs><path data-v-86583afd="" d="M 5 0 L 34.01116466522217 0 L 34.01116466522217 35 L 5 35 Q 0 35 0 30 L 0 5 Q 0 0 5 0 Z" fill="#000000"/><path data-v-86583afd="" d="M 34.01116466522217 0 L 126.22328853607178 0 Q 131.22328853607178 0 131.22328853607178 5 L 131.22328853607178 30 Q 131.22328853607178 35 126.22328853607178 35 L 34.01116466522217 35 Z" fill="#474747"/><!----><text data-v-86583afd="" x="17.005582332611084" y="17.5" dy="0.35em" font-size="18" font-family="Arial, sans-serif" fill="#FFFFFF" text-anchor="middle" letter-spacing="2" font-weight="500" font-style="normal" text-decoration="none" fill-opacity="1" font-variant="normal" style="text-transform: uppercase;"> ./</text><g data-v-86583afd="" transform="translate(101.22328853607178, 7.5) scale(0.8333333333333334)"><path data-v-86583afd="" d="M18.665 21.978C16.758 23.255 14.465 24 12 24 5.377 24 0 18.623 0 12S5.377 0 12 0s12 5.377 12 12c0 3.583-1.574 6.801-4.067 9.001L9.219 7.2H7.2v9.596h1.615V9.251l9.85 12.727Zm-3.332-8.533 1.6 2.061V7.2h-1.6v6.245Z" fill="#ffffff"/></g><text data-v-86583afd="" x="70.61722660064697" y="17.5" dy="0.35em" font-size="18" font-family="'Courier New', sans-serif" fill="#ffffff" text-anchor="middle" font-weight="500" letter-spacing="1.5" font-style="normal" text-decoration="none" fill-opacity="1" font-variant="normal" style="text-transform: capitalize;">Next</text><!----></svg>