<svg data-v-86583afd="" xmlns="http://www.w3.org/2000/svg" width="109.0727307319641" height="24.5" viewBox="0 0 155.81818675994873 35" class="badge-svg"><defs data-v-86583afd=""><!----><!----><!----></defs><path data-v-86583afd="" d="M 5 0 L 34.01116466522217 0 L 34.01116466522217 35 L 5 35 Q 0 35 0 30 L 0 5 Q 0 0 5 0 Z" fill="#000000"/><path data-v-86583afd="" d="M 34.01116466522217 0 L 150.81818675994873 0 Q 155.81818675994873 0 155.81818675994873 5 L 155.81818675994873 30 Q 155.81818675994873 35 150.81818675994873 35 L 34.01116466522217 35 Z" fill="#068e6c"/><!----><text data-v-86583afd="" x="17.005582332611084" y="17.5" dy="0.35em" font-size="18" font-family="Arial, sans-serif" fill="#FFFFFF" text-anchor="middle" letter-spacing="2" font-weight="500" font-style="normal" text-decoration="none" fill-opacity="1" font-variant="normal" style="text-transform: uppercase;"> ./</text><g data-v-86583afd="" transform="translate(125.81818675994873, 7.5) scale(0.8333333333333334)"><path data-v-86583afd="" d="M21.8068 18.2848L13.5528.7565c-.207-.4382-.639-.7273-1.1286-.7541-.5023-.0293-.9523.213-1.2062.6253L2.266 15.1271c-.2773.4518-.2718 1.0091.0158 1.4555l4.3759 6.7786c.2608.4046.7127.6388 1.1823.6388.1332 0 .267-.0188.3987-.0577l12.7019-3.7568c.3891-.1151.7072-.3904.8737-.7553s.1633-.7828-.0075-1.1454zm-1.8481.7519L9.1814 22.2242c-.3292.0975-.6448-.1873-.5756-.5194l3.8501-18.4386c.072-.3448.5486-.3996.699-.0803l7.1288 15.138c.1344.2856-.019.6224-.325.7128z" fill="#ffffff"/></g><text data-v-86583afd="" x="82.91467571258545" y="17.5" dy="0.35em" font-size="18" font-family="'Courier New', sans-serif" fill="#ffffff" text-anchor="middle" font-weight="500" letter-spacing="1.5" font-style="normal" text-decoration="none" fill-opacity="1" font-variant="normal" style="text-transform: capitalize;">Prisma</text><!----></svg>