<svg data-v-86583afd="" xmlns="http://www.w3.org/2000/svg" width="126.29697542190551" height="24.5" viewBox="0 0 180.42425060272217 35" class="badge-svg"><defs data-v-86583afd=""><!----><!----><!----></defs><path data-v-86583afd="" d="M 5 0 L 34.01116466522217 0 L 34.01116466522217 35 L 5 35 Q 0 35 0 30 L 0 5 Q 0 0 5 0 Z" fill="#000000"/><path data-v-86583afd="" d="M 34.01116466522217 0 L 175.42425060272217 0 Q 180.42425060272217 0 180.42425060272217 5 L 180.42425060272217 30 Q 180.42425060272217 35 175.42425060272217 35 L 34.01116466522217 35 Z" fill="#00a8e0"/><!----><text data-v-86583afd="" x="17.005582332611084" y="17.5" dy="0.35em" font-size="18" font-family="Arial, sans-serif" fill="#FFFFFF" text-anchor="middle" letter-spacing="2" font-weight="500" font-style="normal" text-decoration="none" fill-opacity="1" font-variant="normal" style="text-transform: uppercase;"> ./</text><g data-v-86583afd="" transform="translate(150.42425060272217, 7.5) scale(0.8333333333333334)"><path data-v-86583afd="" d="M12.001,4.8c-3.2,0-5.2,1.6-6,4.8c1.2-1.6,2.6-2.2,4.2-1.8c0.913,0.228,1.565,0.89,2.288,1.624 C13.666,10.618,15.027,12,18.001,12c3.2,0,5.2-1.6,6-4.8c-1.2,1.6-2.6,2.2-4.2,1.8c-0.913-0.228-1.565-0.89-2.288-1.624 C16.337,6.182,14.976,4.8,12.001,4.8z M6.001,12c-3.2,0-5.2,1.6-6,4.8c1.2-1.6,2.6-2.2,4.2-1.8c0.913,0.228,1.565,0.89,2.288,1.624 c1.177,1.194,2.538,2.576,5.512,2.576c3.2,0,5.2-1.6,6-4.8c-1.2,1.6-2.6,2.2-4.2,1.8c-0.913-0.228-1.565-0.89-2.288-1.624 C10.337,13.382,8.976,12,6.001,12z" fill="#ffffff"/></g><text data-v-86583afd="" x="95.21770763397217" y="17.5" dy="0.35em" font-size="18" font-family="'Courier New', sans-serif" fill="#ffffff" text-anchor="middle" font-weight="500" letter-spacing="1.5" font-style="normal" text-decoration="none" fill-opacity="1" font-variant="normal" style="text-transform: capitalize;">Tailwind</text><!----></svg>